<svg xmlns="http://www.w3.org/2000/svg" viewBox="0 0 13 13" class="ico_privacy">
          <path fill-opacity="0.25" stroke="#000" stroke-width="0.5" stroke-opacity="5.000000e-02" d="M6.5,0.2L6.5,0.2c3.5,0,6.2,2.8,6.2,6.2l0,0c0,3.5-2.8,6.2-6.2,6.2l0,0C3,12.8,0.2,10,0.2,6.5l0,0
            C0.2,3,3,0.2,6.5,0.2z"></path>
          <path d="M6.5,5.8c0.6,0,1,0.4,1,1v3c0,0.6-0.4,1-1,1s-1-0.4-1-1v-3C5.5,6.2,5.9,5.8,6.5,5.8z
            M6.5,2.2c0.7,0,1.2,0.6,1.2,1.2S7.2,4.8,6.5,4.8S5.2,4.2,5.2,3.5S5.8,2.2,6.5,2.2z"></path>
          <path fill="#fff" d="M6.5,5.8c0.6,0,1,0.4,1,1v3c0,0.6-0.4,1-1,1s-1-0.4-1-1v-3C5.5,6.2,5.9,5.8,6.5,5.8z
            M6.5,2.2c0.7,0,1.2,0.6,1.2,1.2S7.2,4.8,6.5,4.8S5.2,4.2,5.2,3.5S5.8,2.2,6.5,2.2z"></path>
        </svg>